<svg width="355" height="371" viewBox="0 0 355 371" fill="none" xmlns="http://www.w3.org/2000/svg">
<path d="M206.923 178.26C206.984 178.261 207.045 178.25 207.101 178.228C207.158 178.206 207.21 178.172 207.253 178.129C207.297 178.087 207.331 178.036 207.355 177.98C207.378 177.924 207.391 177.864 207.391 177.803L207.464 170.911C207.465 170.85 207.454 170.79 207.432 170.733C207.41 170.677 207.376 170.625 207.334 170.582C207.291 170.538 207.24 170.504 207.184 170.48C207.128 170.456 207.068 170.444 207.007 170.444L206.173 170.435L206.201 167.835C206.217 165.976 205.664 164.157 204.617 162.62C203.57 161.084 202.078 159.904 200.342 159.239C199.645 158.455 199.122 157.531 198.811 156.529C198.499 155.526 198.404 154.469 198.533 153.428L198.585 148.607C198.625 144.857 196.546 144.46 192.32 143.682C189.683 143.18 187.008 142.905 184.324 142.859C181.64 142.841 178.959 143.059 176.313 143.511C172.071 144.299 169.979 144.714 169.941 148.302L169.889 153.122C170.008 154.161 169.901 155.213 169.576 156.206C169.25 157.2 168.714 158.111 168.003 158.878C166.245 159.503 164.721 160.651 163.634 162.168C162.548 163.685 161.951 165.498 161.924 167.363L161.564 201.211C161.55 203.077 162.108 204.902 163.162 206.442C164.216 207.981 165.716 209.162 167.46 209.825C168.154 210.606 168.671 211.529 168.975 212.529C169.28 213.529 169.364 214.583 169.223 215.619L169.172 220.439C169.133 224.027 171.212 224.495 175.44 225.365C178.076 225.873 180.752 226.148 183.436 226.188C186.12 226.199 188.801 225.981 191.448 225.535C195.684 224.847 197.776 224.515 197.816 220.745L197.867 215.924C197.76 214.88 197.877 213.825 198.21 212.83C198.544 211.834 199.085 210.922 199.8 210.153C201.548 209.523 203.062 208.375 204.14 206.861C205.218 205.348 205.808 203.541 205.832 201.683L205.887 196.475L206.537 196.482C206.623 196.484 206.708 196.468 206.788 196.437C206.868 196.405 206.94 196.358 207.002 196.298C207.063 196.238 207.112 196.167 207.146 196.088C207.18 196.01 207.198 195.925 207.198 195.839L207.296 186.727C207.297 186.554 207.23 186.387 207.109 186.263C206.988 186.139 206.822 186.068 206.648 186.066L205.998 186.059L206.082 178.251L206.923 178.26ZM204.532 201.669C204.506 203.74 203.66 205.716 202.18 207.165C200.701 208.615 198.708 209.419 196.637 209.402L170.596 209.125C168.526 209.097 166.55 208.251 165.102 206.77C163.653 205.29 162.85 203.296 162.868 201.225L163.229 167.377C163.255 165.306 164.101 163.33 165.58 161.881C167.06 160.432 169.053 159.628 171.124 159.644L197.164 159.922C199.235 159.949 201.211 160.796 202.659 162.276C204.107 163.757 204.911 165.75 204.893 167.821L204.532 201.669ZM171.11 160.948L197.146 161.226C198.002 161.233 198.847 161.41 199.635 161.745C200.422 162.08 201.136 162.567 201.734 163.179C202.333 163.79 202.805 164.514 203.123 165.308C203.441 166.102 203.6 166.952 203.589 167.807L203.228 201.655C203.22 202.511 203.044 203.357 202.709 204.144C202.374 204.932 201.887 205.645 201.275 206.244C200.664 206.842 199.94 207.314 199.146 207.632C198.351 207.951 197.502 208.109 196.646 208.098L170.61 207.821C169.755 207.813 168.909 207.637 168.122 207.302C167.334 206.967 166.621 206.479 166.022 205.868C165.424 205.256 164.952 204.533 164.633 203.738C164.315 202.944 164.157 202.095 164.168 201.239L164.528 167.391C164.536 166.535 164.712 165.69 165.047 164.902C165.383 164.115 165.87 163.401 166.481 162.803C167.093 162.204 167.816 161.732 168.611 161.414C169.405 161.096 170.254 160.937 171.11 160.948Z" fill="#00D4FF"/>
<rect x="238.5" y="28.5" width="89" height="89" rx="19.5" fill="#007F99" fill-opacity="0.3"/>
<rect x="238.5" y="28.5" width="89" height="89" rx="19.5" stroke="#00D4FF"/>
<path d="M310.117 78.9332C313.76 78.9332 316.738 76.0532 316.738 72.5293C316.738 69.0055 313.76 66.1255 310.117 66.1255C306.474 66.1255 303.496 69.0055 303.496 72.5293C303.496 76.0532 306.474 78.9332 310.117 78.9332ZM295.264 78.2217C298.522 78.2217 301.149 75.6805 301.149 72.5293C301.149 69.3782 298.522 66.837 295.264 66.837C292.006 66.837 289.379 69.3782 289.379 72.5293C289.379 75.6805 292.006 78.2217 295.264 78.2217ZM295.264 63.7876C298.522 63.7876 301.149 61.2464 301.149 58.0952C301.149 54.9441 298.522 52.4029 295.264 52.4029C292.006 52.4029 289.379 54.9441 289.379 58.0952C289.379 61.2464 292.006 63.7876 295.264 63.7876ZM295.264 92.6219C298.522 92.6219 301.149 90.0807 301.149 86.9296C301.149 83.7785 298.522 81.2372 295.264 81.2372C292.006 81.2372 289.379 83.7785 289.379 86.9296C289.379 90.0468 292.006 92.6219 295.264 92.6219ZM280.411 77.5101C283.249 77.5101 285.561 75.2739 285.561 72.5293C285.561 69.7848 283.249 67.5486 280.411 67.5486C277.574 67.5486 275.262 69.7848 275.262 72.5293C275.262 75.2739 277.539 77.5101 280.411 77.5101ZM280.411 63.076C283.249 63.076 285.561 60.8398 285.561 58.0952C285.561 55.3507 283.249 53.1145 280.411 53.1145C277.574 53.1145 275.262 55.3507 275.262 58.0952C275.262 60.8398 277.539 63.076 280.411 63.076ZM280.411 91.9442C283.249 91.9442 285.561 89.708 285.561 86.9634C285.561 84.2189 283.249 81.9827 280.411 81.9827C277.574 81.9827 275.262 84.2189 275.262 86.9634C275.227 89.708 277.539 91.9442 280.411 91.9442ZM280.411 106.412C283.249 106.412 285.561 104.176 285.561 101.431C285.561 98.6869 283.249 96.4506 280.411 96.4506C277.574 96.4506 275.262 98.6869 275.262 101.431C275.227 104.176 277.539 106.412 280.411 106.412ZM280.411 48.608C283.249 48.608 285.561 46.3718 285.561 43.6273C285.561 40.8828 283.249 38.6465 280.411 38.6465C277.574 38.6465 275.262 40.8828 275.262 43.6273C275.262 46.3718 277.539 48.608 280.411 48.608ZM265.523 76.7986C267.975 76.7986 269.937 74.8673 269.937 72.5293C269.937 70.1914 267.94 68.2601 265.523 68.2601C264.383 68.304 263.304 68.7731 262.514 69.5689C261.723 70.3647 261.281 71.4256 261.281 72.5293C261.281 73.6331 261.723 74.694 262.514 75.4898C263.304 76.2856 264.383 76.7546 265.523 76.7986ZM265.523 91.1988C266.663 91.1549 267.742 90.6858 268.532 89.89C269.323 89.0942 269.764 88.0333 269.764 86.9296C269.764 85.8258 269.323 84.7649 268.532 83.9691C267.742 83.1733 266.663 82.7043 265.523 82.6603C264.383 82.7043 263.304 83.1733 262.514 83.9691C261.723 84.7649 261.281 85.8258 261.281 86.9296C261.281 88.0333 261.723 89.0942 262.514 89.89C263.304 90.6858 264.383 91.1549 265.523 91.1988ZM265.523 62.4323C266.663 62.3883 267.742 61.9193 268.532 61.1235C269.323 60.3276 269.764 59.2667 269.764 58.163C269.764 57.0593 269.323 55.9984 268.532 55.2026C267.742 54.4067 266.663 53.9377 265.523 53.8938C264.383 53.9377 263.304 54.4067 262.514 55.2026C261.723 55.9984 261.281 57.0593 261.281 58.163C261.281 59.2667 261.723 60.3276 262.514 61.1235C263.304 61.9193 264.383 62.3883 265.523 62.4323ZM251.966 76.087C252.942 76.087 253.877 75.7122 254.567 75.045C255.257 74.3778 255.644 73.4729 255.644 72.5293C255.644 71.5858 255.257 70.6809 254.567 70.0137C253.877 69.3465 252.942 68.9716 251.966 68.9716C250.991 68.9716 250.055 69.3465 249.365 70.0137C248.675 70.6809 248.288 71.5858 248.288 72.5293C248.288 73.4729 248.675 74.3778 249.365 75.045C250.055 75.7122 250.991 76.087 251.966 76.087Z" fill="#00D4FF"/>
<rect x="36.5" y="259.5" width="89" height="89" rx="19.5" fill="#007F99" fill-opacity="0.3"/>
<rect x="36.5" y="259.5" width="89" height="89" rx="19.5" stroke="#00D4FF"/>
<path d="M79.9859 340.555C100.207 340.295 116.809 323.436 117.069 302.899C117.329 282.363 101.148 265.925 80.9272 266.185C60.7065 266.445 44.1037 283.304 43.8438 303.841C43.5839 324.377 59.7652 340.815 79.9859 340.555Z" stroke="#00D4FF" stroke-linecap="round" stroke-linejoin="round"/>
<path d="M52.9248 299.328L84.3913 298.924C88.9687 298.865 89.066 291.18 84.4885 291.239L55.4879 291.612M55.4489 291.599C60.2091 282.079 69.9149 275.96 80.4662 275.825C95.7329 275.628 107.952 287.825 107.759 303.064C107.566 318.304 95.0343 330.819 79.7677 331.015C64.5027 331.212 52.2823 319.015 52.4752 303.775C52.494 302.285 52.6338 300.795 52.8942 299.322" stroke="#00D4FF" stroke-linecap="round" stroke-linejoin="round"/>
<rect x="36.3928" y="28.3929" width="89" height="89" rx="19.5" fill="#007F99" fill-opacity="0.3"/>
<rect x="36.3928" y="28.3929" width="89" height="89" rx="19.5" stroke="#00D4FF"/>
<path d="M63.288 72.6672C63.212 72.5351 63.1037 72.424 62.9731 72.3441C62.8425 72.2641 62.6937 72.2178 62.5403 72.2095H61.9636C61.8114 72.2189 61.6638 72.2656 61.5344 72.3455C61.405 72.4254 61.2977 72.536 61.2222 72.6672L56.6311 82.1504C56.5012 82.398 56.6438 82.583 56.929 82.583H57.9904C58.4086 82.583 58.6019 82.3918 58.7128 82.1629C58.83 81.9341 59.0803 81.4293 59.1247 81.329C59.1881 81.1879 59.3877 81.1064 59.6792 81.1064H64.6188C64.9008 81.1064 65.0877 81.1566 65.1733 81.329C65.2303 81.4387 65.4838 81.8902 65.6042 82.1316C65.6672 82.2717 65.7719 82.3894 65.9044 82.469C66.037 82.5485 66.1909 82.5861 66.3456 82.5767H67.8854C68.1674 82.5767 68.2973 82.3604 68.196 82.1629C68.0882 81.9717 63.288 72.6672 63.288 72.6672ZM60.3921 79.6393C60.1101 79.6393 59.9738 79.4292 60.0942 79.1753L61.9034 75.3444C62.027 75.0905 62.2203 75.0905 62.3343 75.3444L64.0928 79.1753C64.2101 79.4292 64.0738 79.6393 63.7887 79.6393H60.3921ZM98.7461 72.7393V82.1472C98.7461 82.4074 98.9774 82.5799 99.2625 82.5799H100.517C100.799 82.5799 101.034 82.4012 101.034 82.1222V72.7236C101.034 72.4446 100.847 72.2126 100.565 72.2126H99.2625C98.9774 72.2095 98.7461 72.3819 98.7461 72.7393ZM77.7361 78.633C77.5745 78.4041 77.6664 78.1502 77.9357 78.0655C77.9357 78.0655 79.0194 77.7458 79.539 77.2818C80.0607 76.822 80.3205 76.1574 80.3184 75.288C80.3327 74.7934 80.2285 74.3024 80.0142 73.8553C79.8163 73.4712 79.5217 73.144 79.1588 72.9054C78.7474 72.65 78.2937 72.4685 77.8185 72.3694C77.2957 72.2596 76.5955 72.222 76.5955 72.222C76.2524 72.2075 75.9091 72.1992 75.5658 72.1969H70.3537C70.2169 72.1978 70.0861 72.2519 69.9894 72.3475C69.8927 72.4432 69.838 72.5727 69.8372 72.7079V82.1065C69.8372 82.3855 70.0685 82.5642 70.3537 82.5642H71.583C71.865 82.5642 72.0995 82.3855 72.0995 82.1065V78.3665C72.0995 78.3665 72.1058 78.3665 72.1058 78.3602L74.4441 78.354C74.7261 78.354 75.0937 78.5452 75.2616 78.774L77.6886 82.1504C77.9136 82.4513 78.1259 82.5642 78.411 82.5642H80.0206C80.3026 82.5642 80.3501 82.2977 80.2519 82.1629C80.1505 82.0438 77.7361 78.633 77.7361 78.633ZM76.7507 76.7207C76.5275 76.7619 76.3023 76.7912 76.0759 76.8084C75.7328 76.8208 75.3895 76.8271 75.0461 76.8272H72.6286C72.4919 76.8264 72.361 76.7723 72.2643 76.6767C72.1677 76.581 72.113 76.4515 72.1122 76.3162V74.4102C72.1122 74.1312 72.3434 73.8992 72.6286 73.8992H75.043C75.325 73.8992 75.7907 73.9117 76.0727 73.918C76.0727 73.918 76.4339 73.9306 76.7476 74.0058C77.0207 74.0522 77.2802 74.157 77.508 74.313C77.6816 74.4285 77.8197 74.589 77.9072 74.777C77.9883 74.962 78.0302 75.1615 78.0302 75.3632C78.0302 75.5649 77.9883 75.7644 77.9072 75.9495C77.8211 76.1383 77.6827 76.2992 77.508 76.4134C77.2811 76.569 77.0227 76.6739 76.7507 76.7207ZM114.148 72.2095C113.866 72.2095 113.631 72.3944 113.631 72.6672V78.6831C113.631 78.9621 113.47 79.028 113.27 78.8305L107.184 72.5857C107.071 72.4685 106.935 72.3753 106.785 72.3117C106.635 72.2481 106.473 72.2154 106.309 72.2157H105.162C104.801 72.2157 104.646 72.407 104.646 72.5982V82.2162C104.646 82.4074 104.833 82.5924 105.115 82.5924H106.262C106.544 82.5924 106.743 82.4388 106.743 82.1786L106.75 75.8429C106.75 75.5639 106.911 75.498 107.111 75.7018L113.46 82.2288C113.572 82.3491 113.709 82.444 113.862 82.5068C114.015 82.5696 114.179 82.5988 114.344 82.5924H115.206C115.343 82.5916 115.474 82.5375 115.57 82.4418C115.667 82.3462 115.722 82.2167 115.723 82.0814V72.7205C115.722 72.5852 115.667 72.4557 115.57 72.36C115.474 72.2644 115.343 72.2103 115.206 72.2095H114.148ZM89.3231 78.0718C89.1869 78.3195 88.9556 78.3132 88.8193 78.0718L85.8442 72.6672C85.776 72.5288 85.6695 72.4124 85.5372 72.3314C85.4048 72.2504 85.252 72.2081 85.0964 72.2095H83.4805C83.3438 72.2103 83.2129 72.2644 83.1162 72.36C83.0196 72.4557 82.9649 72.5852 82.9641 72.7205V82.1128C82.9641 82.3918 83.151 82.583 83.4805 82.583H84.4849C84.7669 82.583 84.9729 82.4043 84.9729 82.1378C84.9729 82.0093 84.9792 75.3068 84.9855 75.3068C84.9982 75.3068 88.7021 82.1316 88.7021 82.1316C88.7294 82.1872 88.7719 82.2342 88.8248 82.267C88.8778 82.2998 88.939 82.3173 89.0015 82.3173C89.064 82.3173 89.1253 82.2998 89.1782 82.267C89.2312 82.2342 89.2737 82.1872 89.3009 82.1316C89.3009 82.1316 93.0365 75.3193 93.0429 75.3193C93.0556 75.3193 93.0492 81.9341 93.0492 82.1316C93.0492 82.4043 93.2678 82.5767 93.553 82.5767H94.7063C94.9883 82.5767 95.2228 82.4357 95.2228 82.0657V72.7173C95.2219 72.5821 95.1673 72.4526 95.0706 72.3569C94.9739 72.2613 94.843 72.2072 94.7063 72.2063H93.1601C93.0023 72.2027 92.8465 72.2424 92.7101 72.321C92.5736 72.3996 92.4618 72.5139 92.387 72.6515L89.3231 78.0718ZM43.4377 77.3853C43.4377 82.4513 48.6752 82.7053 49.7239 82.7053C53.2029 82.7053 54.6699 81.7742 54.7301 81.7366C54.88 81.6564 55.0045 81.5365 55.0896 81.3904C55.1746 81.2442 55.2169 81.0775 55.2117 80.9089V77.4103C55.2121 77.3332 55.1971 77.2568 55.1674 77.1855C55.1378 77.1142 55.0942 77.0494 55.0391 76.9949C54.984 76.9404 54.9185 76.8972 54.8464 76.8679C54.7743 76.8386 54.6971 76.8237 54.6192 76.8241H50.2531C49.9235 76.8241 49.7113 77.0843 49.7113 77.4103V77.774C49.7113 78.1 49.9235 78.3602 50.2531 78.3602H52.7783C52.896 78.3602 53.0088 78.4065 53.092 78.4888C53.1752 78.5711 53.2219 78.6827 53.2219 78.7991V80.4293C52.7244 80.6331 50.4527 81.2883 48.6245 80.8556C45.9757 80.2318 45.7697 78.0655 45.7697 77.4197C45.7697 76.8774 45.9376 74.15 49.1885 73.8773C51.8214 73.6547 53.5546 74.7049 53.5736 74.7174C53.8841 74.8773 54.2041 74.7613 54.3784 74.4384L54.7079 73.7832C54.8441 73.5167 54.7966 73.2346 54.4639 73.012C54.4449 72.9995 52.5945 72.012 49.7303 72.012C43.612 72.0057 43.4377 76.8366 43.4377 77.3853ZM113.568 69.6169H106.708C106.458 69.6169 106.239 69.4946 106.116 69.2783C105.992 69.062 105.992 68.8206 106.116 68.6043L109.55 62.7294C109.609 62.6252 109.695 62.5386 109.799 62.479C109.904 62.4194 110.022 62.3889 110.143 62.3908C110.263 62.3889 110.382 62.4194 110.487 62.479C110.591 62.5386 110.677 62.6252 110.735 62.7294L114.17 68.6043C114.235 68.705 114.269 68.8219 114.269 68.9413C114.269 69.0607 114.235 69.1776 114.17 69.2783C114.108 69.3817 114.02 69.4674 113.915 69.5268C113.809 69.5862 113.69 69.6172 113.568 69.6169ZM118.283 80.423C118.939 80.423 119.48 80.9528 119.48 81.608C119.479 81.9218 119.352 82.2223 119.128 82.4441C118.903 82.666 118.6 82.7914 118.283 82.793C117.966 82.7914 117.662 82.666 117.438 82.4441C117.213 82.2223 117.087 81.9218 117.085 81.608C117.087 81.2943 117.213 80.9938 117.438 80.7719C117.662 80.55 117.966 80.4247 118.283 80.423ZM118.289 82.6175C118.837 82.6175 119.255 82.1786 119.255 81.6112C119.255 81.0437 118.844 80.6048 118.289 80.6048C117.735 80.6048 117.316 81.0437 117.316 81.6112C117.316 82.1755 117.728 82.6175 118.289 82.6175ZM117.826 80.9152H118.362C118.683 80.9152 118.844 81.0448 118.844 81.3039C118.844 81.5265 118.701 81.6864 118.482 81.6864L118.882 82.2977H118.638L118.245 81.6864H118.051V82.2977H117.82V80.9152H117.826ZM118.058 81.5077H118.327C118.501 81.5077 118.615 81.4701 118.615 81.2914C118.615 81.1315 118.473 81.0876 118.327 81.0876H118.058V81.5077Z" fill="#00D4FF"/>
<rect x="235.5" y="233.5" width="89" height="89" rx="19.5" fill="#007F99" fill-opacity="0.3"/>
<rect x="235.5" y="233.5" width="89" height="89" rx="19.5" stroke="#00D4FF"/>
<path d="M294.953 304.451C291.893 307.522 288.552 307.037 285.335 305.583C281.932 304.096 278.809 304.031 275.218 305.583C270.721 307.587 268.348 307.005 265.663 304.451C250.424 288.19 252.672 263.428 269.972 262.522C274.187 262.749 277.123 264.915 279.59 265.109C283.274 264.333 286.803 262.102 290.738 262.393C295.453 262.781 299.013 264.721 301.355 268.212C291.612 274.257 293.923 287.544 302.853 291.262C301.073 296.111 298.763 300.928 294.922 304.484L294.953 304.451ZM279.277 262.328C278.809 255.119 284.461 249.171 290.956 248.589C291.862 256.93 283.649 263.137 279.277 262.328Z" fill="#00D4FF"/>
<path d="M191.296 231.381C190.402 230.211 188.729 229.987 187.558 230.881C186.388 231.775 186.164 233.448 187.058 234.619C187.952 235.789 189.625 236.013 190.796 235.119C191.966 234.225 192.19 232.552 191.296 231.381ZM136.119 273.531C135.225 272.36 133.551 272.136 132.381 273.03C131.211 273.924 130.987 275.598 131.881 276.768C132.775 277.938 134.448 278.162 135.619 277.268C136.789 276.374 137.013 274.701 136.119 273.531ZM189.177 233L188.677 233C188.687 245.3 188.39 254.036 187.165 260.24C185.944 266.428 183.819 270.002 180.241 272.098C176.616 274.222 171.413 274.887 163.872 274.995C156.324 275.103 146.641 274.659 134 274.649L134 275.149L134 275.649C146.547 275.659 156.36 276.103 163.886 275.995C171.42 275.887 176.87 275.233 180.747 272.961C184.671 270.662 186.897 266.765 188.146 260.434C189.393 254.119 189.687 245.287 189.677 233L189.177 233Z" fill="#00D4FF"/>
<path d="M144.619 187.296C145.789 186.402 146.013 184.729 145.119 183.558C144.225 182.388 142.552 182.164 141.381 183.058C140.211 183.952 139.987 185.626 140.881 186.796C141.775 187.966 143.448 188.19 144.619 187.296ZM102.469 132.119C103.64 131.225 103.864 129.552 102.97 128.381C102.076 127.211 100.402 126.987 99.2319 127.881C98.0616 128.775 97.8376 130.448 98.7316 131.619C99.6256 132.789 101.299 133.013 102.469 132.119ZM143 185.177L143 184.677C130.7 184.687 121.964 184.39 115.76 183.165C109.572 181.944 105.998 179.819 103.902 176.241C101.778 172.616 101.113 167.413 101.005 159.872C100.897 152.324 101.341 142.641 101.351 130L100.851 130L100.351 130C100.341 142.547 99.8972 152.36 100.005 159.886C100.113 167.42 100.767 172.87 103.039 176.747C105.338 180.671 109.235 182.897 115.566 184.146C121.881 185.393 130.713 185.687 143 185.677L143 185.177Z" fill="#00D4FF"/>
<path d="M218.381 170.809C217.211 171.703 216.987 173.376 217.881 174.546C218.775 175.717 220.448 175.941 221.619 175.047C222.789 174.153 223.013 172.479 222.119 171.309C221.225 170.139 219.552 169.915 218.381 170.809ZM260.531 225.986C259.36 226.88 259.136 228.553 260.03 229.724C260.924 230.894 262.598 231.118 263.768 230.224C264.938 229.33 265.162 227.656 264.268 226.486C263.374 225.316 261.701 225.092 260.531 225.986ZM220 172.928L220 173.428C232.3 173.418 241.036 173.715 247.24 174.94C253.428 176.161 257.002 178.286 259.098 181.864C261.222 185.489 261.887 190.692 261.995 198.233C262.103 205.781 261.659 215.464 261.649 228.104L262.149 228.105L262.649 228.105C262.659 215.558 263.103 205.745 262.995 198.218C262.887 190.685 262.233 185.235 259.961 181.358C257.662 177.434 253.765 175.208 247.434 173.958C241.119 172.712 232.287 172.418 220 172.428L220 172.928Z" fill="#00D4FF"/>
<path d="M174.809 127.619C175.703 128.789 177.376 129.013 178.546 128.119C179.717 127.225 179.941 125.552 179.047 124.381C178.153 123.211 176.479 122.987 175.309 123.881C174.139 124.775 173.915 126.448 174.809 127.619ZM229.986 85.4695C230.88 86.6398 232.553 86.8639 233.724 85.9698C234.894 85.0758 235.118 83.4023 234.224 82.2319C233.33 81.0616 231.656 80.8376 230.486 81.7316C229.316 82.6256 229.092 84.2991 229.986 85.4695ZM176.928 126L177.428 126C177.418 113.7 177.715 104.964 178.94 98.7599C180.161 92.5718 182.286 88.9977 185.864 86.9016C189.489 84.7775 194.692 84.1127 202.233 84.0048C209.781 83.8967 219.464 84.3409 232.104 84.3507L232.105 83.8507L232.105 83.3507C219.558 83.341 209.745 82.8972 202.218 83.0049C194.685 83.1127 189.235 83.7674 185.358 86.0388C181.434 88.338 179.208 92.2351 177.958 98.5663C176.712 104.881 176.418 113.713 176.428 126L176.928 126Z" fill="#00D4FF"/>
</svg>
