<svg width="24" height="24" viewBox="0 0 24 24" fill="none" xmlns="http://www.w3.org/2000/svg">
<path d="M15.2499 6.5C15.8466 6.5 16.4189 6.26295 16.8409 5.84099C17.2628 5.41903 17.4999 4.84674 17.4999 4.25C17.4999 3.65326 17.2628 3.08097 16.8409 2.65901C16.4189 2.23705 15.8466 2 15.2499 2C14.6532 2 14.0809 2.23705 13.6589 2.65901C13.2369 3.08097 12.9999 3.65326 12.9999 4.25C12.9999 4.84674 13.2369 5.41903 13.6589 5.84099C14.0809 6.26295 14.6532 6.5 15.2499 6.5ZM10.7299 8.641C10.1064 8.796 9.68089 9.029 9.33739 9.318C8.82239 9.752 8.40639 10.378 7.84439 11.362C7.71277 11.5923 7.49507 11.7608 7.23918 11.8306C6.98329 11.9004 6.71016 11.8656 6.47989 11.734C6.24961 11.6024 6.08105 11.3847 6.01129 11.1288C5.94153 10.8729 5.97627 10.5998 6.10789 10.3695C6.66739 9.391 7.23289 8.4755 8.04939 7.7885C8.90139 7.0705 9.94439 6.6645 11.3509 6.508C11.9389 6.443 12.5859 6.456 13.1924 6.7265C13.8289 7.011 14.2939 7.5205 14.6109 8.2015C15.0379 9.118 15.3554 9.6635 15.6094 9.98C15.7319 10.1315 15.8174 10.202 15.8659 10.2335C15.9044 10.2585 15.9209 10.2605 15.9269 10.2615C15.9704 10.2665 16.1119 10.2615 16.5259 10.078C16.7064 9.998 16.9034 9.902 17.1444 9.7845L17.2019 9.7565C17.4966 9.61108 17.794 9.47106 18.0939 9.3365C18.336 9.23022 18.6103 9.22414 18.8569 9.3196C19.1035 9.41506 19.3022 9.60429 19.4096 9.8459C19.517 10.0875 19.5244 10.3618 19.4301 10.6088C19.3358 10.8558 19.1475 11.0555 18.9064 11.164C18.6285 11.2887 18.3529 11.4185 18.0799 11.5535L18.0144 11.5855C17.7839 11.698 17.5519 11.8115 17.3344 11.9075C16.8844 12.1065 16.3094 12.3225 15.6859 12.247C15.0279 12.167 14.5209 11.7955 14.1034 11.297L12.7369 13.9335L14.6269 16.3925C14.7396 16.5393 14.8093 16.7144 14.8284 16.8985L15.2444 20.8965C15.2602 21.0282 15.2497 21.1618 15.2134 21.2894C15.1772 21.417 15.1159 21.5361 15.0331 21.6398C14.9503 21.7435 14.8477 21.8297 14.7313 21.8933C14.6149 21.957 14.487 21.9969 14.3551 22.0106C14.2231 22.0243 14.0897 22.0117 13.9627 21.9733C13.8357 21.935 13.7176 21.8718 13.6152 21.7874C13.5129 21.703 13.4284 21.599 13.3666 21.4816C13.3048 21.3642 13.267 21.2357 13.2554 21.1035L12.8684 17.387L11.7204 15.893L11.7104 15.9115L11.6684 15.8255L9.54739 13.0655C9.44312 12.9298 9.37541 12.7697 9.35072 12.6004C9.32604 12.4311 9.3452 12.2583 9.40639 12.0985L10.7299 8.641Z" fill="#00D4FF"/>
<path d="M9.21577 14.5035L8.47977 16.4835L5.57977 16.2535C5.44792 16.2412 5.31495 16.2553 5.18858 16.2949C5.06221 16.3344 4.94496 16.3987 4.84362 16.4839C4.74228 16.5691 4.65888 16.6737 4.59826 16.7914C4.53764 16.9091 4.501 17.0377 4.49047 17.1697C4.47994 17.3017 4.49573 17.4345 4.53693 17.5603C4.57813 17.6861 4.64391 17.8026 4.73045 17.9028C4.817 18.003 4.92258 18.085 5.04109 18.1441C5.15959 18.2032 5.28865 18.2382 5.42077 18.247L9.07477 18.537C9.29163 18.5542 9.5082 18.5003 9.69164 18.3834C9.87508 18.2664 10.0154 18.0929 10.0913 17.889L10.6538 16.375L9.21577 14.5035Z" fill="#00D4FF"/>
</svg>
