<svg width="13" height="20" viewBox="0 0 13 20" fill="none" xmlns="http://www.w3.org/2000/svg">
<path d="M8.12402 3.75C9.15918 3.75 9.99902 2.91016 9.99902 1.875C9.99902 0.839844 9.15918 0 8.12402 0C7.08887 0 6.24902 0.839844 6.24902 1.875C6.24902 2.91016 7.08887 3.75 8.12402 3.75ZM11.8154 9.57422L10.9053 9.11328L10.5264 7.96484C9.95215 6.22266 8.35059 5.00391 6.53418 5C5.12793 4.99609 4.35059 5.39453 2.88965 5.98438C2.0459 6.32422 1.35449 6.96875 0.948242 7.78906L0.686523 8.32031C0.381836 8.9375 0.62793 9.6875 1.24121 9.99609C1.85059 10.3047 2.59277 10.0547 2.90137 9.4375L3.16309 8.90625C3.2998 8.63281 3.52637 8.41797 3.80762 8.30469L4.85449 7.88281L4.26074 10.2539C4.05762 11.0664 4.27637 11.9297 4.84277 12.5508L7.18262 15.1055C7.46387 15.4141 7.66309 15.7852 7.76465 16.1875L8.47949 19.0508C8.64746 19.7188 9.32715 20.1289 9.99512 19.9609C10.6631 19.793 11.0732 19.1133 10.9053 18.4453L10.0381 14.9688C9.93652 14.5664 9.7373 14.1914 9.45605 13.8867L7.67871 11.9453L8.35059 9.26172L8.56543 9.90625C8.77246 10.5352 9.21777 11.0547 9.80371 11.3516L10.7139 11.8125C11.3232 12.1211 12.0654 11.8711 12.374 11.2539C12.6748 10.6406 12.4287 9.88281 11.8154 9.57422ZM2.87402 15.0703C2.74902 15.3867 2.56152 15.6719 2.31934 15.9102L0.366211 17.8672C-0.12207 18.3555 -0.12207 19.1484 0.366211 19.6367C0.854492 20.125 1.64355 20.125 2.13184 19.6367L4.45215 17.3164C4.69043 17.0781 4.87793 16.793 5.00684 16.4766L5.53418 15.1562C3.37402 12.8008 4.02246 13.5234 3.68262 13.0586L2.87402 15.0703Z" fill="#00D4FF"/>
</svg>
