<svg width="17" height="20" viewBox="0 0 17 20" fill="none" xmlns="http://www.w3.org/2000/svg">
<path d="M10.625 3.75C11.6605 3.75 12.5 2.91055 12.5 1.875C12.5 0.839453 11.6605 0 10.625 0C9.58945 0 8.75 0.839453 8.75 1.875C8.75 2.91055 9.58945 3.75 10.625 3.75ZM4.44102 12.4012L3.86289 13.7496H1.25C0.559766 13.7496 0 14.3094 0 14.9996C0 15.6898 0.559766 16.2496 1.25 16.2496H4.27539C5.02734 16.2496 5.7043 15.8027 5.99844 15.1133L6.3418 14.3117L5.925 14.0656C5.24844 13.666 4.75078 13.0746 4.44102 12.4012ZM15 8.74961H13.2801L12.2621 6.66953C11.7738 5.67148 10.8773 4.9418 9.84883 4.67969L7.07227 3.85391C5.9668 3.58828 4.81563 3.83242 3.91445 4.52344L2.36484 5.71133C1.8168 6.13125 1.71289 6.91563 2.13359 7.46367C2.5543 8.01172 3.33828 8.11445 3.88594 7.69492L5.43633 6.50703C5.73594 6.27695 6.11758 6.19453 6.42344 6.26719L6.99766 6.43789L5.53437 9.85156C5.04141 11.0031 5.4832 12.352 6.56172 12.9887L9.88125 14.9484L8.8082 18.3754C8.60195 19.034 8.96875 19.7352 9.62734 19.9414C9.75195 19.9805 9.87774 19.9992 10.0016 19.9992C10.5332 19.9992 11.0262 19.6566 11.1938 19.1223L12.4297 15.1746C12.6605 14.3633 12.3168 13.4918 11.5844 13.05L9.19219 11.6383L10.4152 8.58047L11.207 10.1988C11.5195 10.8371 12.1805 11.2492 12.891 11.2492H15C15.6902 11.2492 16.25 10.6895 16.25 9.99922C16.25 9.30898 15.6902 8.74961 15 8.74961Z" fill="#00D4FF"/>
</svg>
