<svg width="12" height="16" viewBox="0 0 12 16" fill="none" xmlns="http://www.w3.org/2000/svg">
<path fill-rule="evenodd" clip-rule="evenodd" d="M1.66667 4.16667C1.66667 1.865 3.53167 0 5.83333 0C8.135 0 10 1.865 10 4.16667V6.66667H10.3333C11.0667 6.66667 11.6667 7.26667 11.6667 8V13.8333C11.6667 14.9333 10.7667 15.8333 9.66667 15.8333H2C0.9 15.8333 0 14.9333 0 13.8333V8C0 7.26667 0.6 6.66667 1.33333 6.66667H1.66667V4.16667ZM8.33333 4.16667V6.66667H3.33333V4.16667C3.33333 2.785 4.45167 1.66667 5.83333 1.66667C7.215 1.66667 8.33333 2.785 8.33333 4.16667ZM5.83333 8.54167C5.50195 8.54132 5.18033 8.65385 4.92144 8.86072C4.66256 9.06759 4.48185 9.35646 4.40908 9.67976C4.33631 10.0031 4.37582 10.3415 4.5211 10.6393C4.66638 10.9372 4.90876 11.1767 5.20833 11.3183V13.3333C5.20833 13.4991 5.27418 13.6581 5.39139 13.7753C5.5086 13.8925 5.66757 13.9583 5.83333 13.9583C5.99909 13.9583 6.15806 13.8925 6.27528 13.7753C6.39249 13.6581 6.45833 13.4991 6.45833 13.3333V11.3183C6.75791 11.1767 7.00029 10.9372 7.14557 10.6393C7.29085 10.3415 7.33036 10.0031 7.25759 9.67976C7.18482 9.35646 7.00411 9.06759 6.74522 8.86072C6.48634 8.65385 6.16472 8.54132 5.83333 8.54167Z" fill="#EBEBF5" fill-opacity="0.1"/>
</svg>
