<svg width="11" height="18" viewBox="0 0 11 18" fill="none" xmlns="http://www.w3.org/2000/svg">
<path d="M5 3.5C5.96562 3.5 6.75 2.71563 6.75 1.75C6.75 0.784375 5.96562 0 5 0C4.03438 0 3.25 0.784375 3.25 1.75C3.25 2.71563 4.03438 3.5 5 3.5ZM2.29375 8.12187L3 7.41562V9.58125C3 10.4563 3.38125 11.2906 4.04688 11.8594L6.27812 13.7719C6.4625 13.9313 6.58437 14.15 6.61875 14.3906L7.0125 17.1437C7.09062 17.6906 7.59688 18.0719 8.14375 17.9937C8.69063 17.9156 9.07187 17.4094 8.99375 16.8625L8.6 14.1094C8.49688 13.3875 8.13438 12.7313 7.58125 12.2563L6.50313 11.3313V7.73125L6.62187 7.87813C7.19062 8.59062 8.05312 9.00313 8.96562 9.00313H10.0031C10.5563 9.00313 11.0031 8.55625 11.0031 8.00313C11.0031 7.45 10.5563 7.00313 10.0031 7.00313H8.96562C8.6625 7.00313 8.375 6.86563 8.18437 6.62813L7.625 5.92812C6.90625 5.02812 5.81563 4.50313 4.6625 4.50313C3.65625 4.50313 2.69062 4.90312 1.98125 5.61562L0.878125 6.70625C0.315625 7.26875 0 8.03125 0 8.82812V10C0 10.5531 0.446875 11 1 11C1.55313 11 2 10.5531 2 10V8.82812C2 8.5625 2.10625 8.30937 2.29375 8.12187ZM2.68125 13.7281C2.63438 13.8906 2.54688 14.0406 2.42812 14.1594L0.29375 16.2938C-0.0968752 16.6844 -0.0968752 17.3188 0.29375 17.7094C0.684375 18.1 1.31875 18.1 1.70937 17.7094L3.84375 15.575C4.20312 15.2156 4.46562 14.7688 4.60625 14.2781L4.675 14.0406L3.2375 12.8094C3.15938 12.7406 3.08125 12.6719 3.00625 12.5969L2.68125 13.7281Z" fill="#00D4FF"/>
</svg>
